<svg width="56" height="56" viewBox="0 0 56 56" fill="none" xmlns="http://www.w3.org/2000/svg">
<path d="M55.5248 26.8433L47.2466 18.5651C46.7359 18.0546 46.0435 17.7678 45.3214 17.7677H25.6829C25.4683 17.7677 25.2558 17.81 25.0576 17.8921C24.8593 17.9743 24.6792 18.0947 24.5275 18.2466C24.3758 18.3984 24.2556 18.5786 24.1736 18.7769C24.0916 18.9753 24.0495 19.1878 24.0497 19.4024V27.3196C23.9701 27.1428 23.8598 26.9816 23.724 26.8433L15.4473 18.5651C14.9358 18.0548 14.243 17.7681 13.5206 17.7677H2.41228C2.19768 17.7677 1.98518 17.81 1.78693 17.8921C1.58867 17.9743 1.40856 18.0947 1.25688 18.2466C1.10521 18.3984 0.984935 18.5786 0.902949 18.7769C0.820962 18.9753 0.778867 19.1878 0.779069 19.4024V36.5934C0.779069 37.0265 0.951138 37.4419 1.25743 37.7482C1.56371 38.0545 1.97913 38.2266 2.41228 38.2266H13.5206C13.8784 38.2267 14.2327 38.1564 14.5633 38.0195C14.8938 37.8827 15.1942 37.6821 15.4473 37.4292L23.724 29.1525C23.8598 29.0142 23.9701 28.853 24.0497 28.6762V36.5934C24.0495 36.808 24.0916 37.0205 24.1736 37.2188C24.2556 37.4172 24.3758 37.5974 24.5275 37.7492C24.6792 37.901 24.8593 38.0215 25.0576 38.1037C25.2558 38.1858 25.4683 38.2281 25.6829 38.2281H45.3214C45.679 38.2284 46.0331 38.1581 46.3635 38.0212C46.6938 37.8844 46.9939 37.6837 47.2466 37.4307L55.5248 29.154C55.8292 28.8478 56 28.4335 56 28.0017C56 27.5699 55.8292 27.1557 55.5248 26.8494" fill="#DF5E42"/>
<path d="M55.9334 7.75486C55.9336 6.79171 55.7441 5.83795 55.3756 4.94806C55.0072 4.05816 54.467 3.24956 53.7861 2.56844C53.1051 1.88731 52.2966 1.347 51.4068 0.978375C50.5169 0.609746 49.5632 0.420013 48.6001 0.420013H21.851C20.0888 0.420074 18.3856 1.05451 17.0529 2.20727C15.7201 3.36004 14.8469 4.95407 14.5929 6.69781C14.339 4.95407 13.4658 3.36004 12.133 2.20727C10.8002 1.05451 9.09701 0.420074 7.33487 0.420013C5.38954 0.420013 3.52389 1.19279 2.14834 2.56834C0.77278 3.94389 0 5.80954 0 7.75486C0.00203571 9.69899 0.775665 11.5628 2.15096 12.937C3.52625 14.3111 5.39073 15.0832 7.33487 15.0836C9.09724 15.0835 10.8006 14.4488 12.1334 13.2957C13.4662 12.1427 14.3393 10.5483 14.5929 8.80424C14.8465 10.5483 15.7196 12.1427 17.0524 13.2957C18.3852 14.4488 20.0886 15.0835 21.851 15.0836H48.6001C49.5633 15.0836 50.5171 14.8938 51.407 14.5252C52.2969 14.1566 53.1055 13.6163 53.7866 12.9352C54.4677 12.2541 55.008 11.4455 55.3766 10.5556C55.7452 9.66574 55.9349 8.71194 55.9349 7.74872" fill="#356AF6"/>
<path d="M55.9303 48.2425C55.9303 46.3326 55.1856 44.4979 53.8544 43.1283C52.5232 41.7587 50.7105 40.962 48.8013 40.9077C48.7744 40.9068 48.7476 40.9114 48.7224 40.9212C48.6973 40.9309 48.6744 40.9456 48.655 40.9644C48.6357 40.9832 48.6203 41.0056 48.6098 41.0305C48.5993 41.0553 48.5939 41.082 48.5939 41.1089V46.7445C48.244 45.0548 47.3096 43.5426 45.955 42.4737C44.6004 41.4048 42.9123 40.8477 41.1876 40.9004C39.4628 40.953 37.8119 41.6121 36.525 42.7616C35.2381 43.9111 34.3977 45.4776 34.1516 47.1855C33.8974 45.4424 33.0245 43.8489 31.6925 42.6963C30.3604 41.5437 28.6581 40.9088 26.8966 40.9077H7.33487C5.38954 40.9077 3.52389 41.6804 2.14834 43.056C0.77278 44.4315 0 46.2972 0 48.2425C0.00040733 50.1877 0.773318 52.0531 2.14879 53.4286C3.52425 54.804 5.38967 55.5769 7.33487 55.5774H26.8966C28.6592 55.5777 30.363 54.9435 31.6963 53.7907C33.0296 52.638 33.9034 51.0437 34.1577 49.2996C34.4039 51.0075 35.2443 52.5739 36.5311 53.7234C37.818 54.873 39.469 55.532 41.1937 55.5847C42.9185 55.6373 44.6066 55.0802 45.9612 54.0113C47.3158 52.9424 48.2502 51.4302 48.6001 49.7405V55.3761C48.6001 55.403 48.6055 55.4297 48.616 55.4546C48.6264 55.4794 48.6418 55.5019 48.6612 55.5206C48.6805 55.5394 48.7034 55.5541 48.7286 55.5638C48.7537 55.5736 48.7805 55.5782 48.8075 55.5774C50.7167 55.523 52.5294 54.7263 53.8606 53.3567C55.1917 51.9871 55.9365 50.1524 55.9365 48.2425" fill="#F7ABA8"/>
</svg>
